<?xml version="1.0" encoding="UTF-8" standalone="no"?>
<!DOCTYPE svg PUBLIC "-//W3C//DTD SVG 1.1//EN" "http://www.w3.org/Graphics/SVG/1.1/DTD/svg11.dtd">
<svg width="100%" height="100%" viewBox="0 0 32 32" version="1.1" xmlns="http://www.w3.org/2000/svg" xmlns:xlink="http://www.w3.org/1999/xlink" xml:space="preserve" xmlns:serif="http://www.serif.com/" style="fill-rule:evenodd;clip-rule:evenodd;stroke-linejoin:round;stroke-miterlimit:2;">
    <g transform="matrix(1,0,0,1,-306.029,0)">
        <g id="Alerta" transform="matrix(1.06667,0,0,1.06667,306.029,0)">
            <rect x="0" y="0" width="30" height="30" style="fill:none;"/>
            <g transform="matrix(1.10795,0,0,1.10795,1.70455,2.25852)">
                <path d="M1,21L12,2L23,21L1,21ZM4.45,19L19.55,19L12,6L4.45,19ZM12,18C12.283,18 12.521,17.904 12.713,17.713C12.904,17.521 13,17.283 13,17C13,16.717 12.904,16.479 12.713,16.288C12.521,16.096 12.283,16 12,16C11.717,16 11.479,16.096 11.288,16.288C11.096,16.479 11,16.717 11,17C11,17.283 11.096,17.521 11.288,17.713C11.479,17.904 11.717,18 12,18ZM11,15L13,15L13,10L11,10L11,15Z" style="fill:rgb(23,198,79);fill-rule:nonzero;"/>
            </g>
        </g>
    </g>
</svg>
