<svg xmlns="http://www.w3.org/2000/svg" xmlns:xlink="http://www.w3.org/1999/xlink" xmlns:serif="http://www.serif.com/" width="100%" height="100%" viewBox="0 0 32 32" version="1.1" xml:space="preserve" style="fill-rule:evenodd;clip-rule:evenodd;stroke-linejoin:round;stroke-miterlimit:2;">
    <g transform="matrix(1,0,0,1,-136,-34)">
        <g id="SitioWeb" transform="matrix(1.06667,0,0,1.06667,136,34)">
            <rect x="0" y="0" width="30" height="30" style="fill:none;"/>
            <g transform="matrix(2.9646,0,0,2.9646,-447.562,-174.734)">
                <g transform="matrix(1,0,0,1,155.495,60.245)">
                    <path d="M0,7.51L1.073,7.51L1.073,7.081C1.067,6.319 1.68,5.697 2.442,5.691C2.691,5.689 2.936,5.754 3.151,5.881L3.522,6.095L4.057,5.176L3.686,4.961C3.024,4.585 2.791,3.743 3.166,3.081C3.29,2.863 3.469,2.684 3.686,2.561L4.057,2.346L3.522,1.426L3.151,1.641C2.496,2.029 1.65,1.812 1.262,1.156C1.132,0.936 1.065,0.684 1.07,0.428L1.07,-0.001L-0.003,-0.001L-0.003,0.428C0.003,1.19 -0.61,1.813 -1.372,1.819C-1.621,1.821 -1.866,1.755 -2.082,1.629L-2.452,1.414L-2.987,2.334L-2.617,2.548C-1.954,2.924 -1.721,3.766 -2.096,4.429C-2.22,4.646 -2.399,4.826 -2.617,4.949L-2.987,5.163L-2.452,6.083L-2.082,5.868C-1.426,5.481 -0.58,5.698 -0.192,6.354C-0.062,6.574 0.005,6.825 0,7.081L0,7.51ZM1.453,8.276L-0.386,8.276C-0.598,8.276 -0.769,8.105 -0.769,7.893L-0.769,7.081C-0.763,6.742 -1.033,6.463 -1.372,6.457C-1.487,6.455 -1.6,6.485 -1.698,6.544L-2.399,6.951C-2.582,7.056 -2.815,6.994 -2.922,6.811L-3.841,5.22C-3.893,5.133 -3.907,5.028 -3.88,4.93C-3.853,4.832 -3.79,4.748 -3.702,4.697L-2.997,4.291C-2.7,4.127 -2.593,3.754 -2.757,3.458C-2.813,3.357 -2.896,3.274 -2.997,3.218L-3.7,2.812C-3.788,2.761 -3.852,2.677 -3.878,2.579C-3.906,2.481 -3.892,2.376 -3.84,2.289L-2.92,0.698C-2.814,0.516 -2.58,0.453 -2.397,0.559L-1.694,0.965C-1.404,1.139 -1.027,1.046 -0.852,0.755C-0.793,0.657 -0.763,0.543 -0.765,0.428L-0.765,-0.384C-0.765,-0.595 -0.594,-0.766 -0.383,-0.767L1.456,-0.767C1.668,-0.767 1.839,-0.596 1.839,-0.384L1.839,0.428C1.837,0.649 1.955,0.854 2.146,0.965C2.336,1.071 2.569,1.071 2.759,0.965L3.466,0.559C3.649,0.453 3.882,0.516 3.988,0.698L4.908,2.289C5.014,2.472 4.951,2.706 4.769,2.812L4.067,3.218C3.77,3.382 3.663,3.755 3.827,4.052C3.883,4.152 3.966,4.235 4.067,4.291L4.77,4.697C4.953,4.803 5.015,5.037 4.91,5.22L3.99,6.811C3.884,6.994 3.65,7.056 3.467,6.951L2.765,6.544C2.575,6.438 2.343,6.438 2.152,6.544C1.961,6.655 1.844,6.86 1.846,7.081L1.846,7.893C1.846,8.105 1.674,8.276 1.462,8.277C1.459,8.277 1.456,8.276 1.453,8.276" style="fill:#17c64f;fill-rule:nonzero;"/>
                </g>
                <g transform="matrix(1,0,0,1,156.03,64.6899)">
                    <path d="M0,-1.38C-0.381,-1.38 -0.69,-1.071 -0.69,-0.69C-0.69,-0.309 -0.381,0 0,0C0.381,0 0.69,-0.309 0.69,-0.69C0.689,-1.071 0.381,-1.379 0,-1.38M0,0.766C-0.804,0.766 -1.456,0.114 -1.456,-0.69C-1.456,-1.495 -0.804,-2.146 0,-2.146C0.804,-2.146 1.456,-1.495 1.456,-0.69C1.455,0.114 0.804,0.765 0,0.766" style="fill:#17c64f;fill-rule:nonzero;"/>
                </g>
            </g>
        </g>
    </g>
</svg>