<?xml version="1.0" encoding="UTF-8" standalone="no"?>
<!DOCTYPE svg PUBLIC "-//W3C//DTD SVG 1.1//EN" "http://www.w3.org/Graphics/SVG/1.1/DTD/svg11.dtd">
<svg width="100%" height="100%" viewBox="0 0 32 32" version="1.1" xmlns="http://www.w3.org/2000/svg" xmlns:xlink="http://www.w3.org/1999/xlink" xml:space="preserve" xmlns:serif="http://www.serif.com/" style="fill-rule:evenodd;clip-rule:evenodd;stroke-linejoin:round;stroke-miterlimit:2;">
    <g transform="matrix(1,0,0,1,-204,-34)">
        <g id="Cerrar" transform="matrix(1.06667,0,0,1.06667,204,34)">
            <rect x="0" y="0" width="30" height="30" style="fill:none;"/>
            <g transform="matrix(2.38656,0,0,2.38656,-1634.53,-2653.4)">
                <g transform="matrix(1,0,0,1,688.191,1122.66)">
                    <path d="M0,-5.593C-0.154,-5.593 -0.28,-5.468 -0.28,-5.313L-0.28,-1.025C-0.279,-0.459 0.18,-0.001 0.746,0L5.22,0C5.786,-0.001 6.245,-0.459 6.246,-1.025L6.246,-5.313C6.246,-5.468 6.121,-5.593 5.966,-5.593L0,-5.593ZM5.22,0.932L0.746,0.932C-0.335,0.931 -1.211,0.056 -1.212,-1.025L-1.212,-5.313C-1.211,-5.982 -0.669,-6.524 0,-6.525L5.966,-6.525C6.635,-6.524 7.177,-5.982 7.178,-5.313L7.178,-1.025C7.177,0.056 6.301,0.931 5.22,0.932" style="fill:rgb(23,198,79);fill-rule:nonzero;"/>
                </g>
                <g transform="matrix(1,0,0,1,689.403,1113.53)">
                    <path d="M0,2.61L3.542,2.61L3.542,1.025C3.541,0.459 3.083,0.001 2.517,0L1.025,0C0.46,0.001 0.001,0.459 0,1.025L0,2.61ZM4.008,3.542L-0.466,3.542C-0.724,3.542 -0.932,3.334 -0.932,3.076L-0.932,1.025C-0.931,-0.056 -0.055,-0.931 1.025,-0.932L2.517,-0.932C3.598,-0.931 4.474,-0.056 4.475,1.025L4.475,3.076C4.475,3.334 4.266,3.542 4.008,3.542" style="fill:rgb(23,198,79);fill-rule:nonzero;"/>
                </g>
                <g transform="matrix(1,0,0,1,691.174,1118.93)">
                    <path d="M0,2.424C-0.257,2.424 -0.466,2.215 -0.466,1.958L-0.466,0.466C-0.466,0.209 -0.257,0 0,0C0.257,0 0.466,0.209 0.466,0.466L0.466,1.958C0.466,2.215 0.257,2.424 0,2.424" style="fill:rgb(23,198,79);fill-rule:nonzero;"/>
                </g>
                <g transform="matrix(1,0,0,1,691.547,1118.93)">
                    <path d="M0,0.932L-0.746,0.932C-1.003,0.932 -1.212,0.723 -1.212,0.466C-1.212,0.208 -1.003,0 -0.746,0L0,0C0.257,0 0.466,0.208 0.466,0.466C0.466,0.723 0.257,0.932 0,0.932" style="fill:rgb(23,198,79);fill-rule:nonzero;"/>
                </g>
            </g>
        </g>
    </g>
</svg>
