<?xml version="1.0" encoding="UTF-8" standalone="no"?>
<!DOCTYPE svg PUBLIC "-//W3C//DTD SVG 1.1//EN" "http://www.w3.org/Graphics/SVG/1.1/DTD/svg11.dtd">
<svg width="100%" height="100%" viewBox="0 0 32 32" version="1.1" xmlns="http://www.w3.org/2000/svg" xmlns:xlink="http://www.w3.org/1999/xlink" xml:space="preserve" xmlns:serif="http://www.serif.com/" style="fill-rule:evenodd;clip-rule:evenodd;stroke-linejoin:round;stroke-miterlimit:2;">
    <g transform="matrix(1,0,0,1,-204,-68)">
        <g id="AgregarTermino" transform="matrix(1.06667,0,0,1.06667,204,68)">
            <rect x="0" y="0" width="30" height="30" style="fill:none;"/>
            <g transform="matrix(2.35701,0,0,2.35701,6.72454,1.875)">
                <path d="M0,11.137C-0.265,11.137 -0.491,11.046 -0.68,10.864C-0.868,10.683 -0.962,10.464 -0.962,10.209L-0.962,1.392L-1.619,1.392L-1.619,0.464L1.394,0.464L1.394,0L5.627,0L5.627,0.464L8.641,0.464L8.641,1.392L7.984,1.392L7.984,10.209C7.984,10.456 7.888,10.673 7.696,10.858C7.503,11.044 7.279,11.137 7.022,11.137L0,11.137ZM0,10.209L7.022,10.209L7.022,1.392L0,1.392L0,10.209ZM1.699,8.879L2.661,8.879L2.661,2.707L1.699,2.707L1.699,8.879ZM4.36,8.879L5.322,8.879L5.322,2.707L4.36,2.707L4.36,8.879ZM0,1.392L0,10.209L0,1.392Z" style="fill:rgb(23,198,79);fill-rule:nonzero;"/>
            </g>
        </g>
    </g>
</svg>
