<svg xmlns="http://www.w3.org/2000/svg" xmlns:xlink="http://www.w3.org/1999/xlink" xmlns:serif="http://www.serif.com/" width="100%" height="100%" viewBox="0 0 32 32" version="1.1" xml:space="preserve" style="fill-rule:evenodd;clip-rule:evenodd;stroke-linejoin:round;stroke-miterlimit:2;">
    <g transform="matrix(1,0,0,1,-136,0)">
        <g id="Favoritos" transform="matrix(1.06667,0,0,1.06667,136,0)">
            <rect x="0" y="0" width="30" height="30" style="fill:none;"/>
            <g transform="matrix(1.98155,0,0,1.98155,16.1384,7.25612)">
                <path d="M0,7.816C0.542,7.474 1.031,7.134 1.489,6.77C3.321,5.312 4.346,3.72 4.346,1.91C4.346,0.459 3.4,-0.551 2.193,-0.551C1.532,-0.551 0.815,-0.201 0.295,0.319L-0.574,1.189L-1.444,0.319C-1.964,-0.201 -2.68,-0.551 -3.342,-0.551C-4.536,-0.551 -5.494,0.468 -5.494,1.91C-5.494,3.72 -4.47,5.312 -2.638,6.77C-2.18,7.134 -1.691,7.474 -1.149,7.816C-0.965,7.932 -0.783,8.043 -0.574,8.167C-0.366,8.043 -0.184,7.932 0,7.816M2.193,-1.781C4.061,-1.781 5.576,-0.243 5.576,1.91C5.576,6.215 0.963,8.675 -0.574,9.597C-2.112,8.675 -6.725,6.215 -6.725,1.91C-6.725,-0.243 -5.187,-1.781 -3.342,-1.781C-2.198,-1.781 -1.189,-1.166 -0.574,-0.551C0.041,-1.166 1.049,-1.781 2.193,-1.781" style="fill:#17c64f;fill-rule:nonzero;"/>
            </g>
        </g>
    </g>
</svg>