<?xml version="1.0" encoding="UTF-8" standalone="no"?>
<!DOCTYPE svg PUBLIC "-//W3C//DTD SVG 1.1//EN" "http://www.w3.org/Graphics/SVG/1.1/DTD/svg11.dtd">
<svg width="100%" height="100%" viewBox="0 0 32 32" version="1.1" xmlns="http://www.w3.org/2000/svg" xmlns:xlink="http://www.w3.org/1999/xlink" xml:space="preserve" xmlns:serif="http://www.serif.com/" style="fill-rule:evenodd;clip-rule:evenodd;stroke-linejoin:round;stroke-miterlimit:2;">
    <g transform="matrix(1,0,0,1,-306.029,-34)">
        <g id="Filtrar" transform="matrix(1.06667,0,0,1.06667,306.029,34)">
            <rect x="0" y="0" width="30" height="30" style="fill:none;"/>
            <g transform="matrix(1.45833,0,0,1.45833,-2.5,-2.5)">
                <path d="M11,21L11,15L13,15L13,17L21,17L21,19L13,19L13,21L11,21ZM3,19L3,17L9,17L9,19L3,19ZM7,15L7,13L3,13L3,11L7,11L7,9L9,9L9,15L7,15ZM11,13L11,11L21,11L21,13L11,13ZM15,9L15,3L17,3L17,5L21,5L21,7L17,7L17,9L15,9ZM3,7L3,5L13,5L13,7L3,7Z" style="fill:rgb(23,198,79);fill-rule:nonzero;"/>
            </g>
        </g>
    </g>
</svg>
