<svg xmlns="http://www.w3.org/2000/svg" xmlns:xlink="http://www.w3.org/1999/xlink" xmlns:serif="http://www.serif.com/" width="100%" height="100%" viewBox="0 0 32 32" version="1.1" xml:space="preserve" style="fill-rule:evenodd;clip-rule:evenodd;stroke-linejoin:round;stroke-miterlimit:2;">
    <g transform="matrix(1,0,0,1,-102,0)">
        <g id="Atras" transform="matrix(1.06667,0,0,1.06667,102,0)">
            <rect x="0" y="0" width="30" height="30" style="fill:none;"/>
            <g transform="matrix(2.00942,0,0,2.00942,7.58523,5.2239)">
                <path d="M0,9.677L7.38,9.677L7.38,3.624L3.69,0.269L0,3.624L0,9.677ZM7.995,10.907L-0.615,10.907C-0.955,10.907 -1.23,10.632 -1.23,10.292L-1.23,4.757L-3.075,4.757L3.276,-1.017C3.511,-1.23 3.869,-1.23 4.104,-1.017L10.455,4.757L8.61,4.757L8.61,10.292C8.61,10.632 8.335,10.907 7.995,10.907" style="fill:#17c64f;fill-rule:nonzero;"/>
            </g>
        </g>
    </g>
</svg>