<?xml version="1.0" encoding="utf-8"?>
<!-- Generator: Adobe Illustrator 19.1.0, SVG Export Plug-In . SVG Version: 6.00 Build 0)  -->
<svg version="1.1" id="Layer_1" xmlns="http://www.w3.org/2000/svg" xmlns:xlink="http://www.w3.org/1999/xlink" x="0px" y="0px"
	 viewBox="-289 381 32 32" style="enable-background:new -289 381 32 32;" xml:space="preserve">
<style type="text/css">
	.st0{fill:#17C64F;}
</style>
<g>
	<g id="Layer_2_1_">
		<g>
			<g id="Layer_1-2_9_">
				<g id="download_9_">
					<path class="st0" d="M-259.1,397c0,0.7-0.5,1.2-1.2,1.2h-20.6c-0.7,0-1.2-0.5-1.2-1.2s0.5-1.2,1.2-1.2h20.5
						C-259.7,395.8-259.1,396.3-259.1,397z"/>
					<path class="st0" d="M-259.1,397c0,0.3-0.1,0.6-0.4,0.9l-6.8,6.8c-0.5,0.5-1.3,0.5-1.7,0c-0.5-0.5-0.5-1.3,0-1.7l6-6l-6-6
						c-0.5-0.5-0.5-1.3,0-1.7c0.5-0.5,1.3-0.5,1.7,0l6.8,6.8C-259.3,396.4-259.1,396.7-259.1,397z"/>
				</g>
			</g>
		</g>
	</g>
	<path class="st0" d="M-286.9,385.7c0-0.9,0.3-1.6,0.9-2.2s1.3-0.9,2.2-0.9h5.3c0.7,0,1.3,0.6,1.3,1.3l0,0c0,0.7-0.6,1.3-1.3,1.3
		h-5.3c-0.1,0-0.3,0.1-0.4,0.2c-0.1,0.1-0.2,0.2-0.2,0.4v22.3c0,0.1,0.1,0.3,0.2,0.4c0.1,0.1,0.2,0.2,0.4,0.2h5.3
		c0.7,0,1.3,0.6,1.3,1.3l0,0c0,0.7-0.6,1.3-1.3,1.3h-5.3c-0.9,0-1.6-0.3-2.2-0.9s-0.9-1.3-0.9-2.2
		C-286.9,408.1-286.9,385.7-286.9,385.7z"/>
</g>
</svg>
