<?xml version="1.0" encoding="UTF-8" standalone="no"?>
<!DOCTYPE svg PUBLIC "-//W3C//DTD SVG 1.1//EN" "http://www.w3.org/Graphics/SVG/1.1/DTD/svg11.dtd">
<svg width="100%" height="100%" viewBox="0 0 32 32" version="1.1" xmlns="http://www.w3.org/2000/svg" xmlns:xlink="http://www.w3.org/1999/xlink" xml:space="preserve" xmlns:serif="http://www.serif.com/" style="fill-rule:evenodd;clip-rule:evenodd;stroke-linejoin:round;stroke-miterlimit:2;">
    <g transform="matrix(1,0,0,1,0,-34)">
        <g id="Lupa" transform="matrix(1.06667,0,0,1.06667,0,34)">
            <rect x="0" y="0" width="30" height="30" style="fill:none;"/>
            <g transform="matrix(2.1449,0,0,2.1449,20.3755,8.78015)">
                <path d="M0,5.314C0.752,4.539 1.215,3.482 1.215,2.316C1.215,-0.063 -0.712,-1.989 -3.09,-1.989C-5.469,-1.989 -7.395,-0.063 -7.395,2.316C-7.395,4.694 -5.469,6.621 -3.09,6.621C-1.924,6.621 -0.867,6.158 -0.092,5.406L0,5.314ZM1.234,5.77L3.433,7.969C3.673,8.21 3.673,8.599 3.433,8.839C3.193,9.079 2.803,9.079 2.563,8.839L0.364,6.64C-0.791,7.564 -2.325,8.036 -3.966,7.784C-6.285,7.427 -8.167,5.569 -8.548,3.254C-9.171,-0.532 -5.939,-3.765 -2.152,-3.142C0.163,-2.761 2.021,-0.879 2.377,1.44C2.63,3.081 2.158,4.615 1.234,5.77" style="fill:rgb(23,198,79);fill-rule:nonzero;"/>
            </g>
        </g>
    </g>
</svg>
