<?xml version="1.0" encoding="UTF-8" standalone="no"?>
<!DOCTYPE svg PUBLIC "-//W3C//DTD SVG 1.1//EN" "http://www.w3.org/Graphics/SVG/1.1/DTD/svg11.dtd">
<svg width="100%" height="100%" viewBox="0 0 32 32" version="1.1" xmlns="http://www.w3.org/2000/svg" xmlns:xlink="http://www.w3.org/1999/xlink" xml:space="preserve" xmlns:serif="http://www.serif.com/" style="fill-rule:evenodd;clip-rule:evenodd;stroke-linejoin:round;stroke-miterlimit:2;">
    <g transform="matrix(1,0,0,1,-33.9798,-34)">
        <g id="Lupa" transform="matrix(1.06667,0,0,1.06667,33.9798,34)">
            <rect x="0" y="0" width="30" height="30" style="fill:none;"/>
            <g transform="matrix(2.18023,0,0,2.18023,3.33358,6.25073)">
                <path d="M0,8.026L10.702,8.026C11.072,8.026 11.371,8.325 11.371,8.695C11.371,9.064 11.072,9.364 10.702,9.364L0,9.364C-0.369,9.364 -0.669,9.064 -0.669,8.695C-0.669,8.325 -0.369,8.026 0,8.026M0,3.344L10.702,3.344C11.072,3.344 11.371,3.643 11.371,4.013C11.371,4.382 11.072,4.682 10.702,4.682L0,4.682C-0.369,4.682 -0.669,4.382 -0.669,4.013C-0.669,3.643 -0.369,3.344 0,3.344M0,-1.338L10.702,-1.338C11.072,-1.338 11.371,-1.039 11.371,-0.669C11.371,-0.3 11.072,-0.001 10.702,-0.001L0,-0.001C-0.369,-0.001 -0.669,-0.3 -0.669,-0.669C-0.669,-1.039 -0.369,-1.338 0,-1.338" style="fill-rule:nonzero;"/>
            </g>
        </g>
    </g>
</svg>
