<?xml version="1.0" encoding="UTF-8" standalone="no"?>
<!DOCTYPE svg PUBLIC "-//W3C//DTD SVG 1.1//EN" "http://www.w3.org/Graphics/SVG/1.1/DTD/svg11.dtd">
<svg width="100%" height="100%" viewBox="0 0 64 64" version="1.1" xmlns="http://www.w3.org/2000/svg" xmlns:xlink="http://www.w3.org/1999/xlink" xml:space="preserve" xmlns:serif="http://www.serif.com/" style="fill-rule:evenodd;clip-rule:evenodd;stroke-linejoin:round;stroke-miterlimit:2;">
    <g transform="matrix(1,0,0,1,-7.38964e-13,-110)">
        <g id="Editar" transform="matrix(2.13333,0,0,2.13333,7.38964e-13,110)">
            <rect x="0" y="0" width="30" height="30" style="fill:none;"/>
            <g transform="matrix(1.03127,0,0,1.03127,-0.469062,-0.469062)">
                <g transform="matrix(0.46875,0,0,0.46875,-3.4639e-13,-51.5625)">
                    <path d="M17.793,168.497L17.824,168.497C17.824,160.697 24.171,154.373 32,154.373C39.829,154.373 46.176,160.697 46.176,168.497L46.207,168.497C41.975,170.771 37.138,172.06 32,172.06C26.862,172.06 22.025,170.771 17.793,168.497Z"/>
                </g>
                <g transform="matrix(0.46875,0,0,0.46875,-3.4639e-13,-51.5625)">
                    <path d="M13.328,165.559C6.39,160.053 1.94,151.546 1.94,142C1.94,125.398 15.398,111.94 32,111.94C48.602,111.94 62.06,125.398 62.06,142C62.06,151.546 57.61,160.053 50.672,165.559C49.256,156.554 41.435,149.666 32,149.666C22.565,149.666 14.744,156.554 13.328,165.559ZM32,147.355C24.226,147.355 17.928,141.059 17.928,133.285C17.928,125.509 24.226,119.213 32,119.213C39.774,119.213 46.072,125.509 46.072,133.285C46.072,141.059 39.774,147.355 32,147.355Z"/>
                </g>
                <g transform="matrix(0.9375,0,0,0.9375,15,16.4112)">
                    <path d="M0,-1.173C2.591,-1.173 4.69,-3.272 4.69,-5.863C4.69,-8.455 2.591,-10.554 0,-10.554C-2.591,-10.554 -4.69,-8.455 -4.69,-5.863C-4.69,-3.272 -2.591,-1.173 0,-1.173" style="fill-rule:nonzero;"/>
                </g>
            </g>
        </g>
    </g>
</svg>
