<svg xmlns="http://www.w3.org/2000/svg" xmlns:xlink="http://www.w3.org/1999/xlink" xmlns:serif="http://www.serif.com/" width="100%" height="100%" viewBox="0 0 32 32" version="1.1" xml:space="preserve" style="fill-rule:evenodd;clip-rule:evenodd;stroke-linejoin:round;stroke-miterlimit:2;">
    <g transform="matrix(1,0,0,1,-102,-34)">
        <g id="SitioWeb" transform="matrix(1.06667,0,0,1.06667,102,34)">
            <rect x="0" y="0" width="30" height="30" style="fill:none;"/>
            <g transform="matrix(3.00963,0,0,3.00963,-3927.63,-4850.25)">
                <g transform="matrix(1,0,0,1,1307.2,1620.18)">
                    <path d="M0,-7.244C-0.449,-7.243 -0.812,-6.88 -0.813,-6.431L-0.813,-0.814C-0.812,-0.365 -0.449,-0.001 0,-0.001L5.617,-0.001C6.066,-0.001 6.43,-0.365 6.43,-0.814L6.43,-6.431C6.43,-6.88 6.066,-7.243 5.617,-7.244L0,-7.244ZM5.617,0.739L0,0.739C-0.857,0.738 -1.551,0.043 -1.552,-0.814L-1.552,-6.431C-1.551,-7.288 -0.857,-7.982 0,-7.983L5.617,-7.983C6.474,-7.982 7.169,-7.288 7.169,-6.431L7.169,-0.814C7.169,0.043 6.474,0.738 5.617,0.739" style="fill:#17c64f;fill-rule:nonzero;"/>
                </g>
                <g transform="matrix(1,0,0,1,1314,1614.57)">
                    <path d="M0,0.739L-7.982,0.739C-8.187,0.739 -8.352,0.573 -8.352,0.369C-8.352,0.165 -8.187,0 -7.982,0L0,0C0.204,0 0.37,0.165 0.37,0.369C0.37,0.573 0.204,0.739 0,0.739" style="fill:#17c64f;fill-rule:nonzero;"/>
                </g>
                <g transform="matrix(1,0,0,1,1309.23,1613.44)">
                    <path d="M0,0.739L-0.296,0.739C-0.5,0.739 -0.665,0.574 -0.665,0.369C-0.665,0.165 -0.5,0 -0.296,0L0,0C0.204,0 0.37,0.165 0.37,0.369C0.37,0.574 0.204,0.739 0,0.739" style="fill:#17c64f;fill-rule:nonzero;"/>
                </g>
                <g transform="matrix(1,0,0,1,1307.6,1613.44)">
                    <path d="M0,0.739L-0.296,0.739C-0.5,0.739 -0.665,0.574 -0.665,0.369C-0.665,0.165 -0.5,0 -0.296,0L0,0C0.204,0 0.37,0.165 0.37,0.369C0.37,0.574 0.204,0.739 0,0.739" style="fill:#17c64f;fill-rule:nonzero;"/>
                </g>
            </g>
        </g>
    </g>
</svg>