<svg xmlns="http://www.w3.org/2000/svg" width="500" height="300" style="pointer-events: none;"><g clip-path="url(#drawingArea-c470)"><clipPath id="drawingArea-c470"><rect x="0" y="20" width="500" height="260"></rect></clipPath><g transform="matrix(49.9, 0, 0, -25.82479012345679, 249.5, 150.00000000000006)" style="pointer-events: visiblepainted;"><g fill="none" stroke="rgb(100%,100%,0%)" stroke-width="3" stroke-linecap="square" shape-rendering="geometricPrecision" stroke-linejoin="miter" stroke-miterlimit="3.25"><polyline vector-effect="non-scaling-stroke" points="-4.8,-4.770992366412214 -4.444444444444445,-4.770992366412214 -4.444444444444445,-4.083969465648855 -4.088888888888889,-4.083969465648855 -4.088888888888889,-4.770992366412214 -3.7333333333333334,-4.770992366412214 -3.7333333333333334,-4.083969465648855 -4.088888888888889,-4.083969465648855 -4.088888888888889,-3.3969465648854964 -3.7333333333333334,-3.3969465648854964 -3.7333333333333334,-2.7099236641221376 -3.3777777777777773,-2.7099236641221376 -3.3777777777777773,-2.0229007633587788 -3.022222222222222,-2.0229007633587788 -3.022222222222222,-2.7099236641221376 -2.6666666666666665,-2.7099236641221376 -2.6666666666666665,-3.3969465648854964 -2.311111111111111,-3.3969465648854964 -2.311111111111111,-4.083969465648855 -2.6666666666666665,-4.083969465648855 -2.6666666666666665,-4.770992366412214 -2.311111111111111,-4.770992366412214 -2.311111111111111,-4.083969465648855 -1.9555555555555553,-4.083969465648855 -1.9555555555555553,-4.770992366412214 -1.6,-4.770992366412214 -1.6,-4.083969465648855 -1.9555555555555553,-4.083969465648855 -1.9555555555555553,-3.3969465648854964 -1.6,-3.3969465648854964 -1.6,-2.7099236641221376 -1.9555555555555553,-2.7099236641221376 -1.9555555555555553,-3.3969465648854964 -2.311111111111111,-3.3969465648854964 -2.311111111111111,-2.7099236641221376 -2.6666666666666665,-2.7099236641221376 -2.6666666666666665,-2.0229007633587788 -3.022222222222222,-2.0229007633587788 -3.022222222222222,-1.33587786259542 -2.6666666666666665,-1.33587786259542 -2.6666666666666665,-0.6488549618320612 -2.311111111111111,-0.6488549618320612 -2.311111111111111,0.03816793893129766 -1.9555555555555553,0.03816793893129766 -1.9555555555555553,-0.6488549618320612 -1.6,-0.6488549618320612 -1.6,0.03816793893129766 -1.9555555555555553,0.03816793893129766 -1.9555555555555553,0.7251908396946565 -1.6,0.7251908396946565 -1.6,1.4122137404580153 -1.2444444444444445,1.4122137404580153 -1.2444444444444445,2.099236641221374 -0.8888888888888888,2.099236641221374 -0.8888888888888888,1.4122137404580153 -0.5333333333333332,1.4122137404580153 -0.5333333333333332,2.099236641221374 -0.8888888888888888,2.099236641221374 -0.8888888888888888,2.786259541984733 -0.5333333333333332,2.786259541984733 -0.5333333333333332,3.4732824427480917 -0.17777777777777803,3.4732824427480917 -0.17777777777777803,4.16030534351145 0.17777777777777803,4.16030534351145 0.17777777777777803,3.4732824427480917 0.5333333333333332,3.4732824427480917 0.5333333333333332,2.786259541984733 0.8888888888888893,2.786259541984733 0.8888888888888893,2.099236641221374 0.5333333333333332,2.099236641221374 0.5333333333333332,1.4122137404580153 0.8888888888888893,1.4122137404580153 0.8888888888888893,2.099236641221374 1.2444444444444445,2.099236641221374 1.2444444444444445,1.4122137404580153 1.5999999999999996,1.4122137404580153 1.5999999999999996,0.7251908396946565 1.9555555555555557,0.7251908396946565 1.9555555555555557,0.03816793893129766 1.5999999999999996,0.03816793893129766 1.5999999999999996,-0.6488549618320612 1.9555555555555557,-0.6488549618320612 1.9555555555555557,0.03816793893129766 2.311111111111111,0.03816793893129766 2.311111111111111,-0.6488549618320612 2.666666666666667,-0.6488549618320612 2.666666666666667,-1.33587786259542 3.022222222222222,-1.33587786259542 3.022222222222222,-2.0229007633587788 2.666666666666667,-2.0229007633587788 2.666666666666667,-2.7099236641221376 2.311111111111111,-2.7099236641221376 2.311111111111111,-3.3969465648854964 1.9555555555555557,-3.3969465648854964 1.9555555555555557,-2.7099236641221376 1.5999999999999996,-2.7099236641221376 1.5999999999999996,-3.3969465648854964 1.9555555555555557,-3.3969465648854964 1.9555555555555557,-4.083969465648855 1.5999999999999996,-4.083969465648855 1.5999999999999996,-4.770992366412214 1.9555555555555557,-4.770992366412214 1.9555555555555557,-4.083969465648855 2.311111111111111,-4.083969465648855 2.311111111111111,-4.770992366412214 2.666666666666667,-4.770992366412214 2.666666666666667,-4.083969465648855 2.311111111111111,-4.083969465648855 2.311111111111111,-3.3969465648854964 2.666666666666667,-3.3969465648854964 2.666666666666667,-2.7099236641221376 3.022222222222222,-2.7099236641221376 3.022222222222222,-2.0229007633587788 3.3777777777777773,-2.0229007633587788 3.3777777777777773,-2.7099236641221376 3.7333333333333334,-2.7099236641221376 3.7333333333333334,-3.3969465648854964 4.0888888888888895,-3.3969465648854964 4.0888888888888895,-4.083969465648855 3.7333333333333334,-4.083969465648855 3.7333333333333334,-4.770992366412214 4.0888888888888895,-4.770992366412214 4.0888888888888895,-4.083969465648855 4.444444444444444,-4.083969465648855 4.444444444444444,-4.770992366412214 4.8,-4.770992366412214 "></polyline></g></g></g></svg>