<?xml version="1.0" encoding="UTF-8" standalone="no"?>
<!DOCTYPE svg PUBLIC "-//W3C//DTD SVG 1.1//EN" "http://www.w3.org/Graphics/SVG/1.1/DTD/svg11.dtd">
<svg width="100%" height="100%" viewBox="0 0 32 32" version="1.1" xmlns="http://www.w3.org/2000/svg" xmlns:xlink="http://www.w3.org/1999/xlink" xml:space="preserve" xmlns:serif="http://www.serif.com/" style="fill-rule:evenodd;clip-rule:evenodd;stroke-linejoin:round;stroke-miterlimit:2;">
    <g transform="matrix(1,0,0,1,-237.98,0)">
        <g id="AgregarFavorito" transform="matrix(1.06667,0,0,1.06667,237.98,0)">
            <rect x="0" y="0" width="30" height="30" style="fill:none;"/>
            <g transform="matrix(2.13397,0,0,2.13397,-1174.67,-456.772)">
                <g transform="matrix(1,0,0,1,557.445,216.767)">
                    <path d="M0,8.466C-0.19,8.352 -0.361,8.248 -0.531,8.141C-0.766,7.993 -0.986,7.845 -1.203,7.696C-1.242,7.67 -1.269,7.653 -1.269,7.653L-1.269,7.652C-1.529,7.47 -1.779,7.286 -2.02,7.095C-3.852,5.637 -4.877,4.045 -4.877,2.234C-4.877,0.793 -3.918,-0.226 -2.724,-0.226C-2.062,-0.226 -1.346,0.124 -0.826,0.644L0.044,1.514L0.913,0.644C1.433,0.124 2.149,-0.226 2.811,-0.226C4.018,-0.226 4.964,0.783 4.964,2.234C4.964,2.894 4.824,3.524 4.562,4.13L5.588,4.825C5.958,4.048 6.194,3.189 6.194,2.234C6.194,0.082 4.679,-1.456 2.811,-1.456C1.667,-1.456 0.659,-0.841 0.044,-0.226C-0.572,-0.841 -1.58,-1.456 -2.724,-1.456C-4.569,-1.456 -6.107,0.082 -6.107,2.234C-6.107,6.539 -1.494,9 0.044,9.922C0.336,9.747 0.74,9.515 1.202,9.226C0.863,9.015 0.419,8.733 0,8.466" style="fill:white;fill-rule:nonzero;"/>
                </g>
                <g transform="matrix(1,0,0,1,561.794,226.228)">
                    <path d="M0,-3.69L0,-2.46L1.23,-2.46C1.57,-2.46 1.845,-2.185 1.845,-1.845C1.845,-1.505 1.57,-1.23 1.23,-1.23L-0.001,-1.23L0,0C0,0.34 -0.275,0.615 -0.615,0.615C-0.955,0.615 -1.23,0.34 -1.23,0L-1.231,-1.23L-2.46,-1.23C-2.8,-1.23 -3.075,-1.505 -3.075,-1.845C-3.075,-2.185 -2.8,-2.46 -2.46,-2.46L-1.23,-2.46L-1.23,-3.69C-1.23,-4.03 -0.955,-4.305 -0.615,-4.305C-0.275,-4.305 0,-4.03 0,-3.69" style="fill:white;fill-rule:nonzero;"/>
                </g>
            </g>
        </g>
    </g>
</svg>
