<?xml version="1.0" encoding="UTF-8" standalone="no"?>
<!DOCTYPE svg PUBLIC "-//W3C//DTD SVG 1.1//EN" "http://www.w3.org/Graphics/SVG/1.1/DTD/svg11.dtd">
<svg width="100%" height="100%" viewBox="0 0 32 32" version="1.1" xmlns="http://www.w3.org/2000/svg" xmlns:xlink="http://www.w3.org/1999/xlink" xml:space="preserve" xmlns:serif="http://www.serif.com/" style="fill-rule:evenodd;clip-rule:evenodd;stroke-linejoin:round;stroke-miterlimit:2;">
    <g transform="matrix(1,0,0,1,-170,-68)">
        <g id="AgregarTermino" transform="matrix(1.06667,0,0,1.06667,170,68)">
            <rect x="0" y="0" width="30" height="30" style="fill:none;"/>
            <g>
                <g transform="matrix(2.88782,0,0,2.88782,8.77184,7.21458)">
                    <path d="M0,-1.079C-0.298,-1.079 -0.539,-0.838 -0.539,-0.54C-0.539,-0.242 -0.298,-0.001 0,-0.001L3.929,-0.001L3.929,-1.079L0,-1.079ZM4.314,0.77L0,0.77C-0.723,0.77 -1.31,0.183 -1.31,-0.54C-1.31,-1.263 -0.723,-1.849 0,-1.849L4.314,-1.849C4.527,-1.849 4.699,-1.677 4.699,-1.464L4.699,0.385C4.699,0.597 4.527,0.77 4.314,0.77" style="fill:rgb(23,198,79);fill-rule:nonzero;"/>
                </g>
                <g transform="matrix(2.54508,0,0,2.88782,18.2619,13.5903)">
                    <path d="M0,0.77L-3.081,0.77C-3.294,0.77 -3.467,0.598 -3.467,0.385C-3.467,0.172 -3.294,0 -3.081,0L0,0C0.213,0 0.385,0.172 0.385,0.385C0.385,0.598 0.213,0.77 0,0.77" style="fill:rgb(23,198,79);fill-rule:nonzero;"/>
                </g>
                <g transform="matrix(2.54508,0,0,2.88782,18.2619,18.5881)">
                    <path d="M0,0.77L-3.081,0.77C-3.294,0.77 -3.467,0.598 -3.467,0.385C-3.467,0.172 -3.294,0 -3.081,0L0,0C0.213,0 0.385,0.172 0.385,0.385C0.385,0.598 0.213,0.77 0,0.77" style="fill:rgb(23,198,79);fill-rule:nonzero;"/>
                </g>
                <g transform="matrix(2.69646,0,0,2.69646,20.6248,8.12539)">
                    <path d="M0,5.099L0,3.708L0.927,3.708L0.927,5.099L2.318,5.099L2.318,6.026L0.927,6.026L0.927,7.417L0,7.417L0,6.026L-1.391,6.026L-1.391,5.099L0,5.099Z" style="fill:rgb(23,198,79);fill-rule:nonzero;"/>
                </g>
                <g transform="matrix(0.9375,0,0,0.9375,-159.375,-63.75)">
                    <path d="M189.942,98L180.307,98C177.556,97.997 175.326,95.767 175.323,93.016L175.323,74.032C175.323,73.376 175.852,72.846 176.509,72.846C177.165,72.846 177.694,73.376 177.694,74.032L177.694,93.016C177.698,94.458 178.865,95.625 180.307,95.628L189.942,95.628L189.942,98ZM194.307,85.423L194.307,78.067L187.61,78.067C186.954,78.067 186.424,77.534 186.424,76.881C186.424,76.225 186.954,75.695 187.61,75.695L195.493,75.695C196.149,75.695 196.679,76.225 196.679,76.881L196.679,85.423L194.307,85.423Z" style="fill:rgb(23,198,79);fill-rule:nonzero;"/>
                </g>
            </g>
        </g>
    </g>
</svg>
