<svg xmlns="http://www.w3.org/2000/svg" xmlns:xlink="http://www.w3.org/1999/xlink" xmlns:serif="http://www.serif.com/" width="100%" height="100%" viewBox="0 0 32 32" version="1.1" xml:space="preserve" style="fill-rule:evenodd;clip-rule:evenodd;stroke-linejoin:round;stroke-miterlimit:2;">
    <g transform="matrix(1,0,0,1,-170,0)">
        <g id="Cronologia" transform="matrix(1.06667,0,0,1.06667,170,0)">
            <rect x="0" y="0" width="30" height="30" style="fill:none;"/>
            <g transform="matrix(1.90542,0,0,1.90542,16.1714,19.8528)">
                <path d="M0,-5.007L0,-2.802L1.56,-1.242C1.8,-1.002 1.8,-0.613 1.559,-0.373C1.319,-0.132 0.93,-0.132 0.69,-0.373L-1.23,-2.293L-1.23,-5.007C-1.23,-5.347 -0.955,-5.622 -0.615,-5.622C-0.275,-5.622 0,-5.347 0,-5.007M-0.615,-8.697C2.84,-8.697 5.629,-5.849 5.533,-2.373C5.444,0.837 2.769,3.512 -0.441,3.601C-3.682,3.69 -6.377,1.272 -6.727,-1.855C-6.768,-2.222 -6.482,-2.547 -6.112,-2.547C-5.802,-2.547 -5.539,-2.315 -5.506,-2.007C-5.203,0.77 -2.589,2.852 0.372,2.277C2.291,1.904 3.836,0.359 4.209,-1.56C4.821,-4.71 2.425,-7.467 -0.615,-7.467C-2.306,-7.467 -3.798,-6.614 -4.684,-5.314L-3.69,-5.314C-3.35,-5.315 -3.075,-5.039 -3.075,-4.699C-3.075,-4.36 -3.35,-4.084 -3.69,-4.084L-6.765,-4.084L-6.765,-7.16C-6.765,-7.499 -6.49,-7.775 -6.15,-7.775C-5.81,-7.775 -5.535,-7.499 -5.535,-7.16L-5.535,-6.238C-4.413,-7.731 -2.627,-8.697 -0.615,-8.697" style="fill:#17c64f;fill-rule:nonzero;"/>
            </g>
        </g>
    </g>
</svg>