<?xml version="1.0" encoding="UTF-8" standalone="no"?>
<!DOCTYPE svg PUBLIC "-//W3C//DTD SVG 1.1//EN" "http://www.w3.org/Graphics/SVG/1.1/DTD/svg11.dtd">
<svg width="100%" height="100%" viewBox="0 0 32 32" version="1.1" xmlns="http://www.w3.org/2000/svg" xmlns:xlink="http://www.w3.org/1999/xlink" xml:space="preserve" xmlns:serif="http://www.serif.com/" style="fill-rule:evenodd;clip-rule:evenodd;stroke-linejoin:round;stroke-miterlimit:2;">
    <g transform="matrix(1,0,0,1,-238,-34)">
        <g id="Cerrar" transform="matrix(1.06667,0,0,1.06667,238,34)">
            <rect x="0" y="0" width="30" height="30" style="fill:none;"/>
            <g transform="matrix(2.66958,0,0,2.66958,-1830.15,-2866.63)">
                <g transform="matrix(1,0,0,1,688.007,1082.85)">
                    <path d="M0,-6.834C-0.506,-6.833 -0.916,-6.423 -0.917,-5.917L-0.917,-0.917C-0.916,-0.412 -0.506,-0.002 0,-0.001L6.333,-0.001C6.839,-0.002 7.249,-0.412 7.25,-0.917L7.25,-5.917C7.249,-6.423 6.839,-6.833 6.333,-6.834L0,-6.834ZM6.333,0.833L0,0.833C-0.966,0.832 -1.749,0.049 -1.75,-0.917L-1.75,-5.917C-1.749,-6.883 -0.966,-7.666 0,-7.667L6.333,-7.667C7.299,-7.666 8.082,-6.883 8.083,-5.917L8.083,-0.917C8.082,0.049 7.299,0.832 6.333,0.833" style="fill:rgb(23,198,79);fill-rule:nonzero;"/>
                </g>
                <g transform="matrix(1,0,0,1,691.174,1076.72)">
                    <path d="M0,3.211C-0.301,3.212 -0.596,3.135 -0.858,2.988L-4.68,0.839C-4.881,0.726 -4.952,0.472 -4.838,0.271C-4.725,0.07 -4.471,-0.001 -4.27,0.113L-0.45,2.263C-0.171,2.418 0.169,2.418 0.448,2.263L4.27,0.113C4.471,-0.001 4.725,0.07 4.838,0.271C4.952,0.472 4.881,0.726 4.68,0.839L0.858,2.988C0.596,3.135 0.301,3.212 0,3.211" style="fill:rgb(23,198,79);fill-rule:nonzero;"/>
                </g>
            </g>
        </g>
    </g>
</svg>
