<?xml version="1.0" encoding="utf-8"?>
<!-- Generator: Adobe Illustrator 19.1.0, SVG Export Plug-In . SVG Version: 6.00 Build 0)  -->
<svg version="1.1" id="Layer_1" xmlns:serif="http://www.serif.com/"
	 xmlns="http://www.w3.org/2000/svg" xmlns:xlink="http://www.w3.org/1999/xlink" x="0px" y="0px" viewBox="464 264 32 32"
	 style="enable-background:new 464 264 32 32;" xml:space="preserve" fill="currentColor">
<g transform="matrix(1.00207,0,0,1,1450.47,2351.4)">
	<path d="M-968.5-2076.2c-2.7,0-4.8,2.2-4.8,4.8s2.2,4.8,4.8,4.8c2.7,0,4.8-2.2,4.8-4.8C-963.7-2074.1-965.8-2076.2-968.5-2076.2
		 M-968.5-2064c-4.1,0-7.4-3.3-7.4-7.4c0-4.1,3.3-7.4,7.4-7.4s7.4,3.3,7.4,7.4C-961.1-2067.3-964.4-2064-968.5-2064"/>
</g>
<g transform="matrix(1.00207,0,0,1,1450.47,2342.45)">
	<path d="M-968.5-2071.9c-0.7,0-1.3-0.6-1.3-1.3v-3.1c0-0.7,0.6-1.3,1.3-1.3c0.7,0,1.3,0.6,1.3,1.3v3.1
		C-967.2-2072.4-967.8-2071.9-968.5-2071.9"/>
</g>
<g transform="matrix(1.00207,0,0,1,1450.47,2353.47)">
	<path d="M-968.5-2058.5c-0.7,0-1.3-0.6-1.3-1.3v-3.1c0-0.7,0.6-1.3,1.3-1.3c0.7,0,1.3,0.6,1.3,1.3v3.1
		C-967.2-2059-967.8-2058.5-968.5-2058.5"/>
</g>
<g transform="matrix(1.00207,0,0,1,1456.69,2348.65)">
	<path d="M-961-2067.4h-3c-0.7,0-1.3-0.6-1.3-1.3s0.6-1.3,1.3-1.3h3c0.7,0,1.3,0.6,1.3,1.3S-960.3-2067.4-961-2067.4"/>
</g>
<g transform="matrix(1.00207,0,0,1,1445.64,2348.65)">
	<path d="M-974.3-2067.4h-3c-0.7,0-1.3-0.6-1.3-1.3s0.6-1.3,1.3-1.3h3c0.7,0,1.3,0.6,1.3,1.3S-973.6-2067.4-974.3-2067.4"/>
</g>
<g transform="matrix(1.00207,0,0,1,1453.89,2344.53)">
	<path d="M-964.3-2070.8c-0.7,0-1.3-0.6-1.3-1.3c0-0.3,0.1-0.7,0.4-0.9l1.4-1.4c0.5-0.5,1.3-0.5,1.8,0c0.5,0.5,0.5,1.3,0,1.8
		l-1.4,1.4C-963.7-2070.9-964-2070.8-964.3-2070.8"/>
</g>
<g transform="matrix(1.00207,0,0,1,1446.4,2352)">
	<path d="M-973.4-2061.8c-0.7,0-1.3-0.6-1.3-1.3c0-0.3,0.1-0.7,0.4-0.9l1.4-1.4c0.5-0.5,1.3-0.5,1.8,0c0.5,0.5,0.5,1.3,0,1.8
		l-1.4,1.5C-972.7-2061.9-973.1-2061.7-973.4-2061.8"/>
</g>
<g transform="matrix(1.00207,0,0,1,1447.06,2344.53)">
	<path d="M-972.6-2070.8c-0.3,0-0.7-0.1-0.9-0.4l-1.4-1.4c-0.5-0.5-0.5-1.3,0-1.8c0.5-0.5,1.3-0.5,1.8,0l1.4,1.4
		c0.5,0.5,0.5,1.3,0,1.8C-971.9-2070.9-972.3-2070.8-972.6-2070.8"/>
</g>
<g transform="matrix(1.00207,0,0,1,1454.54,2352.01)">
	<path d="M-963.6-2061.8c-0.3,0-0.7-0.1-0.9-0.3l-1.4-1.4c-0.5-0.5-0.5-1.3,0-1.8c0.5-0.5,1.3-0.5,1.8,0l1.5,1.4
		c0.5,0.5,0.5,1.3,0,1.8C-962.9-2061.9-963.2-2061.8-963.6-2061.8L-963.6-2061.8z"/>
</g>
</svg>
