<?xml version="1.0" encoding="UTF-8" standalone="no"?>
<!DOCTYPE svg PUBLIC "-//W3C//DTD SVG 1.1//EN" "http://www.w3.org/Graphics/SVG/1.1/DTD/svg11.dtd">
<svg width="100%" height="100%" viewBox="0 0 32 32" version="1.1" xmlns="http://www.w3.org/2000/svg" xmlns:xlink="http://www.w3.org/1999/xlink" xml:space="preserve" xmlns:serif="http://www.serif.com/" style="fill-rule:evenodd;clip-rule:evenodd;stroke-linejoin:round;stroke-miterlimit:2;">
    <g transform="matrix(1,0,0,1,-272,-34)">
        <g id="Cerrar" transform="matrix(1.06667,0,0,1.06667,272,34)">
            <rect x="0" y="0" width="30" height="30" style="fill:none;"/>
            <g id="Layer_1-2" transform="matrix(0.444915,0,0,0.444915,4.09958,1.875)">
                <g id="bookmark">
                    <path d="M46.5,59C46.155,58.997 45.814,58.922 45.5,58.78L24.5,49.25L3.5,58.78C3.187,58.914 2.85,58.984 2.51,58.984C1.143,58.984 0.014,57.867 0,56.5L0,10.5C0.005,4.742 4.742,0.005 10.5,0L38.5,0C44.258,0.005 48.995,4.742 49,10.5L49,56.5C49,57.35 48.566,58.143 47.85,58.6C47.449,58.863 46.979,59.002 46.5,59ZM24.5,44C24.845,44.002 25.186,44.077 25.5,44.22L44,52.62L44,10.5C43.995,7.485 41.515,5.005 38.5,5L10.5,5C7.485,5.005 5.005,7.485 5,10.5L5,52.62L23.47,44.22C23.793,44.073 24.145,43.998 24.5,44Z" style="fill:white;fill-rule:nonzero;"/>
                </g>
            </g>
        </g>
    </g>
</svg>
